<svg width="1280" height="720" xmlns="http://www.w3.org/2000/svg" xmlns:xlink="http://www.w3.org/1999/xlink" overflow="hidden"><defs><clipPath id="clip0"><rect x="0" y="0" width="1280" height="720"/></clipPath><clipPath id="clip1"><rect x="164" y="267" width="416" height="280"/></clipPath><clipPath id="clip2"><rect x="164" y="267" width="416" height="280"/></clipPath><clipPath id="clip3"><rect x="164" y="267" width="416" height="280"/></clipPath><clipPath id="clip4"><rect x="372" y="396" width="209" height="203"/></clipPath><clipPath id="clip5"><rect x="372" y="396" width="209" height="203"/></clipPath><clipPath id="clip6"><rect x="372" y="396" width="209" height="203"/></clipPath><clipPath id="clip7"><rect x="365" y="394" width="8" height="8"/></clipPath><clipPath id="clip8"><rect x="365" y="394" width="8" height="8"/></clipPath><clipPath id="clip9"><rect x="365" y="394" width="8" height="8"/></clipPath><clipPath id="clip10"><rect x="155" y="289" width="8" height="8"/></clipPath><clipPath id="clip11"><rect x="155" y="289" width="8" height="8"/></clipPath><clipPath id="clip12"><rect x="155" y="289" width="8" height="8"/></clipPath><clipPath id="clip13"><rect x="303" y="327" width="132" height="132"/></clipPath><clipPath id="clip14"><rect x="303" y="327" width="132" height="132"/></clipPath><clipPath id="clip15"><rect x="303" y="327" width="132" height="132"/></clipPath><clipPath id="clip16"><rect x="93" y="233" width="133" height="132"/></clipPath><clipPath id="clip17"><rect x="93" y="233" width="133" height="132"/></clipPath><clipPath id="clip18"><rect x="93" y="233" width="133" height="132"/></clipPath><clipPath id="clip19"><rect x="515" y="492" width="132" height="132"/></clipPath><clipPath id="clip20"><rect x="515" y="492" width="132" height="132"/></clipPath><clipPath id="clip21"><rect x="515" y="492" width="132" height="132"/></clipPath></defs><g clip-path="url(#clip0)"><rect x="0" y="0" width="1280" height="720" fill="#FFFFFF"/><g clip-path="url(#clip1)"><g clip-path="url(#clip2)"><g clip-path="url(#clip3)"><path d="M103.497 40.6391 103.497 33.6117 103.497 33.6117 517.503 33.6117 517.503 292.657" stroke="#333333" stroke-width="1.99358" stroke-dasharray="7.97431 7.97431" fill="none" transform="matrix(1 0 0 1.07127 61.5002 232.239)"/></g></g></g><g clip-path="url(#clip4)"><g clip-path="url(#clip5)"><g clip-path="url(#clip6)"><path d="M310.245 105.314 310.245 107.107 310.245 107.107 517.079 107.107 517.079 292.417" stroke="#333333" stroke-width="1.99194" stroke-dasharray="7.96778 7.96778" fill="none" transform="matrix(1 0 0 1.07353 62.838 284.011)"/></g></g></g><text fill="#333333" font-family="Segoe UI,Segoe UI_MSFontService,sans-serif" font-weight="700" font-size="16" transform="translate(489.961 392)">583%</text><rect x="303" y="394" width="132" height="236" fill="#2683C6"/><rect x="93" y="303" width="132" height="327" fill="#2683C6"/><text fill="#333333" font-family="Segoe UI,Segoe UI_MSFontService,sans-serif" font-weight="400" font-size="60" transform="translate(278.283 152)">Litestream vs AWS vs Azure<tspan fill="#2683C6" font-weight="700" font-size="60" x="166.807" y="-77">Hosting Costs</tspan></text><rect x="896" y="232" width="335" height="429" fill="#FFFFFF"/><text fill="#2683C6" font-family="Segoe UI,Segoe UI_MSFontService,sans-serif" font-weight="700" font-size="112" transform="translate(849.386 354)">1027%<tspan fill="#333333" font-weight="400" font-size="37" x="21.4736" y="49">More Cost Effective</tspan><tspan fill="#000000" fill-opacity="0.6" font-weight="400" font-size="29" x="4.20349" y="114">For running recommended </tspan><tspan fill="#000000" fill-opacity="0.6" font-weight="400" font-size="29" x="-28.2232" y="149">Web App and managed RDBMS </tspan><tspan fill="#000000" fill-opacity="0.6" font-weight="400" font-size="29" x="-6.54321" y="184">configuration vs comparable </tspan><tspan fill="#000000" fill-opacity="0.6" font-weight="400" font-size="29" x="-1.51654" y="219">Litestream</tspan><tspan fill="#000000" fill-opacity="0.6" font-weight="400" font-size="29" x="140.537" y="219">on Digital Ocean </tspan><tspan fill="#000000" fill-opacity="0.6" font-weight="400" font-size="29" x="7.45679" y="254">4vCPU / 8GB RAM Droplet</tspan></text><g clip-path="url(#clip7)"><g clip-path="url(#clip8)"><g clip-path="url(#clip9)"><path d="M369 394C371.209 394 373 395.791 373 398 373 400.209 371.209 402 369 402 366.791 402 365 400.209 365 398 365 395.791 366.791 394 369 394" fill="#333333"/></g></g></g><g clip-path="url(#clip10)"><g clip-path="url(#clip11)"><g clip-path="url(#clip12)"><path d="M159 289C161.209 289 163 290.791 163 293 163 295.209 161.209 297 159 297 156.791 297 155 295.209 155 293 155 290.791 156.791 289 159 289" fill="#333333"/></g></g></g><rect x="468" y="270" width="60" height="31" fill="#FFFFFF"/><text fill="#333333" font-family="Segoe UI,Segoe UI_MSFontService,sans-serif" font-weight="700" font-size="16" transform="translate(475.006 288)">1027%</text><g clip-path="url(#clip13)"><g clip-path="url(#clip14)"><g clip-path="url(#clip15)"><path d="M369 328.5C404.622 328.5 433.5 357.378 433.5 393 433.5 428.622 404.622 457.5 369 457.5 333.378 457.5 304.5 428.622 304.5 393 304.5 357.378 333.378 328.5 369 328.5" stroke="#2683C6" stroke-width="3.00005" fill="#FFFFFF"/></g></g></g><g clip-path="url(#clip16)"><g clip-path="url(#clip17)"><g clip-path="url(#clip18)"><path d="M64.5 0C100.122-2.84217e-14 129 28.8776 129 64.5 129 100.122 100.122 129 64.5 129 28.8776 129 0 100.122 0 64.5-1.42109e-14 28.8776 28.8776-1.42109e-14 64.5-2.84217e-14" stroke="#2683C6" stroke-width="3" fill="#FFFFFF" transform="matrix(1.00758 0 0 1 94.5114 234.5)"/></g></g></g><rect x="515" y="557" width="131" height="73" fill="#2683C6"/><g clip-path="url(#clip19)"><g clip-path="url(#clip20)"><g clip-path="url(#clip21)"><path d="M581 493.5C616.622 493.5 645.5 522.378 645.5 558 645.5 593.622 616.622 622.5 581 622.5 545.378 622.5 516.5 593.622 516.5 558 516.5 522.378 545.378 493.5 581 493.5" stroke="#2683C6" stroke-width="3.00005" fill="#FFFFFF"/></g></g></g><text fill="#000000" fill-opacity="0.6" font-family="Segoe UI,Segoe UI_MSFontService,sans-serif" font-weight="400" font-size="52" transform="translate(549.231 579)">48<tspan font-size="29" x="-426.859" y="87">Azure</tspan><tspan font-size="29" x="-210.863" y="87">AWS</tspan><tspan font-size="29" x="-35.5968" y="87">Litestream</tspan><tspan font-size="52" x="-222.463" y="-165">280</tspan><tspan font-size="52" x="-431.872" y="-261">493</tspan></text></g></svg>